<svg width="452" height="282" viewBox="0 0 452 282" fill="none" xmlns="http://www.w3.org/2000/svg">
<g clip-path="url(#clip0_110_16)">
<rect x="28" width="393" height="282" fill="black"/>
<path d="M76.2731 169.116H65.4271L63.5701 156.692H50.3812L48.5241 169.116H38.6581L49.5988 100.63H65.3284L76.2691 169.116H76.2731ZM51.7522 147.398H62.1082L57.027 112.765H56.8334L51.7522 147.398Z" fill="#F15A35"/>
<path d="M112.323 143.58V152.68C112.323 163.636 106.851 169.9 96.3015 169.9C85.7519 169.9 80.2795 163.636 80.2795 152.68V117.066C80.2795 106.11 85.7519 99.8466 96.3015 99.8466C106.851 99.8466 112.323 106.11 112.323 117.066V123.717H102.161V116.382C102.161 111.491 100.012 109.631 96.5938 109.631C93.1761 109.631 91.0267 111.491 91.0267 116.382V153.365C91.0267 158.255 93.1761 160.02 96.5938 160.02C100.012 160.02 102.161 158.259 102.161 153.365V143.58H112.323Z" fill="#F15A35"/>
<path d="M115.745 100.63H148.962V110.415H137.725V169.116H126.978V110.415H115.741V100.63H115.745Z" fill="#F15A35"/>
<path d="M153.652 100.63H164.4V169.116H153.652V100.63Z" fill="#F15A35"/>
<path d="M181.982 119.515H181.789V169.12H172.116V100.634H185.598L196.443 141.629H196.637V100.634H206.211V169.12H195.171L181.982 119.515Z" fill="#F15A35"/>
<path d="M230.052 130.962H245.098V152.68C245.098 163.636 239.626 169.9 229.076 169.9C218.526 169.9 213.054 163.636 213.054 152.68V117.066C213.054 106.11 218.526 99.8466 229.076 99.8466C239.626 99.8466 245.098 106.11 245.098 117.066V123.717H234.936V116.382C234.936 111.491 232.786 109.631 229.368 109.631C225.951 109.631 223.801 111.491 223.801 116.382V153.365C223.801 158.255 225.951 160.02 229.368 160.02C232.786 160.02 234.936 158.259 234.936 153.365V140.743H230.052V130.958V130.962Z" fill="#F15A35"/>
<path d="M298.344 143.58V152.68C298.344 163.636 292.871 169.9 282.322 169.9C271.772 169.9 266.3 163.636 266.3 152.68V117.066C266.3 106.11 271.772 99.8466 282.322 99.8466C292.871 99.8466 298.344 106.11 298.344 117.066V123.717H288.181V116.382C288.181 111.491 286.032 109.631 282.614 109.631C279.196 109.631 277.047 111.491 277.047 116.382V153.365C277.047 158.255 279.196 160.02 282.614 160.02C286.032 160.02 288.181 158.259 288.181 153.365V143.58H298.344Z" fill="#F15A35"/>
<path d="M304.891 100.63H315.638V159.331H333.323V169.116H304.891V100.63Z" fill="#F15A35"/>
<path d="M348.27 100.63V153.464C348.27 158.354 350.42 160.115 353.838 160.115C357.255 160.115 359.405 158.354 359.405 153.464V100.63H369.567V152.775C369.567 163.731 364.095 169.995 353.545 169.995C342.996 169.995 337.523 163.731 337.523 152.775V100.63H348.27Z" fill="#F15A35"/>
<path d="M409.039 116.382V118.827C409.039 125.87 406.89 130.273 402.101 132.525V132.723C407.866 134.974 410.114 140.058 410.114 147.299V152.874C410.114 163.438 404.547 169.116 393.8 169.116H376.897V100.63H393.116C404.254 100.63 409.043 105.817 409.043 116.382H409.039ZM387.644 110.415V128.517H391.844C395.85 128.517 398.292 126.756 398.292 121.276V117.462C398.292 112.571 396.633 110.419 392.82 110.419H387.64L387.644 110.415ZM387.644 138.298V159.331H393.8C397.415 159.331 399.367 157.669 399.367 152.581V146.615C399.367 140.256 397.316 138.298 392.428 138.298H387.64H387.644Z" fill="#F15A35"/>
<path d="M78.0313 249.539H67.1854L65.3284 237.116H52.1394L50.2824 249.539H40.4163L51.3571 181.053H67.0866L78.0274 249.539H78.0313ZM53.5105 227.821H63.8664L58.7853 193.189H58.5916L53.5105 227.821Z" fill="#F15A35"/>
<path d="M105.681 229.681H105.875L113.106 181.057H128.053V249.543H117.891V200.429H117.697L110.466 249.543H100.304L92.4886 201.114H92.295V249.543H82.9149V181.057H97.8622L105.678 229.681H105.681Z" fill="#F15A35"/>
<path d="M150.329 180.274C160.784 180.274 166.158 186.537 166.158 197.493V199.646H155.995V196.809C155.995 191.918 154.04 190.059 150.622 190.059C147.204 190.059 145.248 191.918 145.248 196.809C145.248 201.699 147.398 205.518 154.431 211.678C163.42 219.603 166.253 225.277 166.253 233.103C166.253 244.059 160.78 250.323 150.231 250.323C139.681 250.323 134.209 244.059 134.209 233.103V228.898H144.371V233.788C144.371 238.678 146.521 240.443 149.938 240.443C153.356 240.443 155.506 238.682 155.506 233.788C155.506 228.894 153.356 225.079 146.323 218.919C137.334 210.994 134.501 205.32 134.501 197.493C134.501 186.537 139.875 180.274 150.329 180.274Z" fill="#F15A35"/>
<path d="M169.283 181.057H202.501V190.842H191.263V249.543H180.516V190.842H169.279V181.057H169.283Z" fill="#F15A35"/>
<path d="M217.938 209.917H232.691V219.702H217.938V239.759H236.5V249.543H207.191V181.057H236.5V190.842H217.938V209.921V209.917Z" fill="#F15A35"/>
<path d="M265.616 249.539C265.031 247.779 264.64 246.703 264.64 241.124V230.361C264.64 224.003 262.491 221.653 257.607 221.653H253.893V249.535H243.146V181.049H259.366C270.504 181.049 275.293 186.237 275.293 196.801V202.182C275.293 209.225 273.044 213.728 268.26 215.979V216.173C273.633 218.424 275.391 223.512 275.391 230.654V241.219C275.391 244.546 275.49 246.991 276.565 249.535H265.624L265.616 249.539ZM253.893 190.838V211.872H258.093C262.1 211.872 264.542 210.111 264.542 204.631V197.881C264.542 192.991 262.882 190.838 259.069 190.838H253.889H253.893Z" fill="#F15A35"/>
<path d="M282.421 181.057H299.418C310.166 181.057 315.44 187.024 315.44 197.984V232.617C315.44 243.573 310.166 249.543 299.418 249.543H282.421V181.057ZM293.168 190.842V239.759H299.225C302.643 239.759 304.697 237.998 304.697 233.107V197.493C304.697 192.603 302.646 190.842 299.225 190.842H293.168Z" fill="#F15A35"/>
<path d="M356.967 249.539H346.121L344.264 237.116H331.075L329.218 249.539H319.352L330.293 181.053H346.022L356.963 249.539H356.967ZM332.446 227.821H342.802L337.721 193.189H337.527L332.446 227.821Z" fill="#F15A35"/>
<path d="M384.617 229.681H384.811L392.041 181.057H406.988V249.543H396.826V200.429H396.633L389.402 249.543H379.24L371.424 201.114H371.231V249.543H361.85V181.057H376.798L384.613 229.681H384.617Z" fill="#F15A35"/>
<path d="M78.0313 90.9718H67.1854L65.3284 78.5479H52.1394L50.2824 90.9718H40.4163L51.3571 22.4858H67.0866L78.0274 90.9718H78.0313ZM53.5105 69.2537H63.8664L58.7853 34.6209H58.5916L53.5105 69.2537Z" fill="#F15A35"/>
<path d="M105.681 71.1093H105.875L113.106 22.4858H128.053V90.9718H117.891V41.8577H117.697L110.466 90.9718H100.304L92.4886 42.5422H92.295V90.9718H82.9149V22.4858H97.8622L105.678 71.1093H105.681Z" fill="#F15A35"/>
<path d="M150.329 21.7024C160.784 21.7024 166.158 27.9658 166.158 38.9218V41.0742H155.995V38.2373C155.995 33.3469 154.04 31.4872 150.622 31.4872C147.204 31.4872 145.248 33.3469 145.248 38.2373C145.248 43.1277 147.398 46.9459 154.431 53.1065C163.42 61.0317 166.253 66.7056 166.253 74.5319C166.253 85.4879 160.78 91.7513 150.231 91.7513C139.681 91.7513 134.209 85.4879 134.209 74.5319V70.3259H144.371V75.2164C144.371 80.1068 146.521 81.8715 149.938 81.8715C153.356 81.8715 155.506 80.1108 155.506 75.2164C155.506 70.322 153.356 66.5077 146.323 60.3472C137.334 52.422 134.501 46.7481 134.501 38.9218C134.501 27.9658 139.875 21.7024 150.329 21.7024Z" fill="#F15A35"/>
<path d="M169.283 22.4858H202.501V32.2706H191.263V90.9718H180.516V32.2706H169.279V22.4858H169.283Z" fill="#F15A35"/>
<path d="M217.938 51.3458H232.691V61.1306H217.938V81.187H236.5V90.9718H207.191V22.4858H236.5V32.2706H217.938V51.3497V51.3458Z" fill="#F15A35"/>
<path d="M265.616 90.9718C265.031 89.2111 264.64 88.1349 264.64 82.556V71.7938C264.64 65.4355 262.491 63.0852 257.607 63.0852H253.893V90.9679H243.146V22.4858H259.366C270.504 22.4858 275.293 27.673 275.293 38.2373V43.6184C275.293 50.6613 273.044 55.1639 268.26 57.4153V57.6092C273.633 59.8605 275.391 64.9488 275.391 72.0906V82.6549C275.391 85.9825 275.49 88.4277 276.565 90.9718H265.624H265.616ZM253.893 32.2706V53.3043H258.093C262.1 53.3043 264.542 51.5436 264.542 46.0636V39.3135C264.542 34.4231 262.882 32.2706 259.069 32.2706H253.889H253.893Z" fill="#F15A35"/>
<path d="M282.421 22.4858H299.418C310.165 22.4858 315.44 28.4524 315.44 39.4124V74.0452C315.44 85.0012 310.165 90.9718 299.418 90.9718H282.421V22.4858ZM293.168 32.2706V81.187H299.225C302.642 81.187 304.697 79.4263 304.697 74.5358V38.9218C304.697 34.0314 302.646 32.2706 299.225 32.2706H293.168Z" fill="#F15A35"/>
<path d="M356.967 90.9718H346.121L344.264 78.5479H331.075L329.218 90.9718H319.352L330.293 22.4858H346.022L356.963 90.9718H356.967ZM332.446 69.2537H342.802L337.721 34.6209H337.527L332.446 69.2537Z" fill="#F15A35"/>
<path d="M384.617 71.1093H384.811L392.041 22.4858H406.989V90.9718H396.826V41.8577H396.633L389.402 90.9718H379.24L371.424 42.5422H371.231V90.9718H361.851V22.4858H376.798L384.613 71.1093H384.617Z" fill="#F15A35"/>
<path d="M0 0V282H452V0H0ZM153.637 241.044C148.706 230.599 140.4 224.656 129.594 224.656C117.685 224.656 109.704 230.421 105.148 240.574C71.6581 238.714 47.6667 233.792 47.6667 227.995L89.6042 55.1362C90.837 47.3812 97.5144 41.6717 105.357 41.6717H109.573C115.386 41.6717 120.735 44.837 123.541 49.9293C123.541 49.9293 220.099 225.269 220.589 226.159C221.079 227.05 221.502 227.37 221.502 227.995C221.502 234.377 192.461 239.707 153.633 241.048L153.637 241.044ZM210.296 178.094L152.965 67.1012C146.805 55.1758 155.45 40.9555 168.856 40.9555H279.694C292.887 40.9555 301.54 54.7643 295.807 66.662C292.879 72.7355 286.739 76.5933 280.006 76.5933H240.744C227.985 76.5933 216.172 85.207 213.904 97.7813C212.785 103.977 213.86 109.869 216.48 114.815C220.846 123.06 244.339 167.822 244.339 167.822C246.26 188.5 217.068 191.214 210.296 178.098V178.094ZM346.852 240.574C342.296 230.425 334.315 224.656 322.406 224.656C311.6 224.656 303.29 230.599 298.363 241.044C259.535 239.707 230.494 234.377 230.494 227.991C230.494 227.366 230.917 227.046 231.407 226.156C231.897 225.265 328.455 49.9253 328.455 49.9253C331.261 44.8291 336.611 41.6677 342.423 41.6677H346.639C354.482 41.6677 361.159 47.3772 362.392 55.1323L404.329 227.991C404.329 233.788 380.342 238.71 346.848 240.57L346.852 240.574Z" fill="#93C3E9"/>
</g>
<defs>
<clipPath id="clip0_110_16">
<rect width="452" height="282" fill="white"/>
</clipPath>
</defs>
</svg>
