<svg width="43" height="23" viewBox="0 0 43 23" fill="none" xmlns="http://www.w3.org/2000/svg">
<path d="M12.6669 22.6136C12.0771 21.4645 11.0854 20.8103 9.79319 20.8103C8.36948 20.8103 7.41533 21.4437 6.87064 22.5617C2.86997 22.3575 0 21.8175 0 21.1772L5.01493 2.17123C5.16143 1.31975 5.96157 0.693257 6.89693 0.693257H7.4003C8.09526 0.693257 8.73386 1.04285 9.06819 1.60012C9.06819 1.60012 20.6082 20.8795 20.6645 20.9765C20.7246 21.0734 20.7734 21.108 20.7734 21.1772C20.7734 21.8799 17.3024 22.4648 12.6632 22.6136H12.6669ZM19.4361 15.6911L12.588 3.48998C11.8518 2.17815 12.8848 0.613647 14.4888 0.613647H27.7342C29.312 0.613647 30.345 2.13316 29.6613 3.44153C29.312 4.10956 28.5794 4.5353 27.7718 4.5353H23.0799C21.5548 4.5353 20.1423 5.48369 19.8719 6.86475C19.7366 7.54662 19.8681 8.19389 20.1799 8.73731C20.7021 9.64417 23.5082 14.5661 23.5082 14.5661C23.7373 16.8402 20.2475 17.1379 19.4399 15.6945L19.4361 15.6911ZM35.7544 22.5617C35.2097 21.4472 34.2555 20.8103 32.8318 20.8103C31.5396 20.8103 30.5479 21.4645 29.9581 22.6136C25.3188 22.4648 21.8478 21.8799 21.8478 21.1772C21.8478 21.108 21.8966 21.0734 21.9567 20.9765C22.0168 20.8795 33.5606 1.60012 33.5606 1.60012C33.8949 1.03939 34.5335 0.693257 35.2285 0.693257H35.7318C36.6672 0.693257 37.4673 1.31975 37.6138 2.17469L42.625 21.1807C42.625 21.8175 39.7588 22.361 35.7544 22.5652V22.5617Z" fill="#F15935"/>
</svg>
